<?xml version="1.0" encoding="iso-8859-1"?>
<!-- Generator: Adobe Illustrator 18.1.1, SVG Export Plug-In . SVG Version: 6.00 Build 0)  -->
<svg version="1.1" id="Capa_1" xmlns="http://www.w3.org/2000/svg" xmlns:xlink="http://www.w3.org/1999/xlink" x="0px" y="0px"
	 viewBox="0 0 23.303 23.303" style="enable-background:new 0 0 23.303 23.303;" xml:space="preserve">
<g>
	<g>
		<path style="fill:#010002;" d="M23.234,8.068L22.683,9.29c0,0-0.243-2.262-0.611-3.487c-0.368-1.222-1.16-2.017-1.16-2.017
			l0.365,1.651c0,0-1.281-1.565-2.51-2.132c-0.192-0.089-0.384-0.175-0.574-0.259c-1.616-1.443-3.742-2.327-6.08-2.327
			c-3.309,0-6.198,1.762-7.804,4.394c-0.08-0.049-0.538-0.341-0.761-0.898C3.303,3.603,3.179,2.931,3.179,2.931
			C1.652,4.398,2.017,6.843,2.017,6.843S1.406,7.455,0.796,8.434C0.185,9.412,0,11.184,0,11.184l1.04-1.098
			c0,0-0.244,0.487-0.427,1.405c-0.184,0.918-0.124,2.386-0.124,2.386l0.551-1.164c0,0,0,3.731,3.547,7.031
			c3.545,3.301,9.902,4.221,14.733,0.062S23.234,8.068,23.234,8.068z M12.113,1.919c1.889,0,3.62,0.661,4.983,1.76l-1.75,0.291
			c0,0,1.771,0.551,3.117,1.59c0.336,0.26,0.61,0.585,0.834,0.926c0.295,0.627,0.511,1.298,0.634,2.003l-0.855-0.667
			c0,0,0.304,0.367,0.366,1.345c0.062,0.978-0.246,2.751-0.246,2.751l-0.792-0.917c0,0,0.183,1.529-0.123,2.875
			c-0.306,1.342-0.978,1.891-0.978,1.891l0.12-1.588c0,0-0.916,2.02-3.484,2.812c-2.566,0.795-5.011-1.466-5.011-1.466
			c1.65,0.427,2.688-0.429,3.546-0.856c0.855-0.429,1.282-0.49,1.65-0.49c0.366,0,0-0.855-0.674-1.223
			c-0.672-0.365-1.466-0.183-3.056,0.246c-1.591,0.428-2.57-0.918-2.506-1.833C7.947,10.449,9.416,11,9.416,11l-0.06-1.833
			c0,0,2.444-1.527,2.261-1.896c-0.182-0.367-1.038-0.242-1.773-0.489c-0.732-0.243-1.16-0.917-1.16-0.917S8.561,5.376,8.805,4.951
			c0.243-0.429,1.099-1.043,1.099-1.043s-0.549-0.06-1.466,0.245c-0.917,0.306-1.59,0.856-1.59,0.856S6.668,4.953,5.92,4.892
			C7.376,3.081,9.608,1.919,12.113,1.919z"/>
	</g>
</g>
<g>
</g>
<g>
</g>
<g>
</g>
<g>
</g>
<g>
</g>
<g>
</g>
<g>
</g>
<g>
</g>
<g>
</g>
<g>
</g>
<g>
</g>
<g>
</g>
<g>
</g>
<g>
</g>
<g>
</g>
</svg>
