<?xml version="1.0" encoding="iso-8859-1"?>
<!-- Generator: Adobe Illustrator 18.1.1, SVG Export Plug-In . SVG Version: 6.00 Build 0)  -->
<svg version="1.1" id="Capa_1" xmlns="http://www.w3.org/2000/svg" xmlns:xlink="http://www.w3.org/1999/xlink" x="0px" y="0px"
	 viewBox="0 0 23.301 23.301" style="enable-background:new 0 0 23.301 23.301;" xml:space="preserve">
<g>
	<path style="fill:#010002;" d="M18.83,3.141c-1.873-2.219-4.309-3.263-7.304-3.13c-2.775-0.133-5.114,0.915-7.014,3.14
		s-2.851,5.005-2.851,8.34c0,2.971,0.731,5.538,2.191,7.702c1.852,2.739,4.468,4.108,7.854,4.108c3.376,0,5.989-1.436,7.839-4.307
		c1.395-2.164,2.095-4.671,2.095-7.521C21.64,8.139,20.702,5.361,18.83,3.141z M15.943,17.846c-0.452,1.553-1.084,2.682-1.897,3.39
		c-0.637,0.553-1.431,0.828-2.382,0.828c-1.413,0-2.512-0.641-3.295-1.921c-1.127-1.834-1.691-4.668-1.691-8.501
		c0-3.225,0.366-5.699,1.095-7.422c0.896-2.098,2.201-3.148,3.921-3.148c0.932,0,1.756,0.304,2.471,0.91s1.305,1.649,1.765,3.122
		c0.462,1.476,0.694,3.698,0.694,6.669C16.623,14.27,16.396,16.295,15.943,17.846z"/>
</g>
<g>
</g>
<g>
</g>
<g>
</g>
<g>
</g>
<g>
</g>
<g>
</g>
<g>
</g>
<g>
</g>
<g>
</g>
<g>
</g>
<g>
</g>
<g>
</g>
<g>
</g>
<g>
</g>
<g>
</g>
</svg>
