<?xml version="1.0" encoding="iso-8859-1"?>
<!-- Generator: Adobe Illustrator 18.1.1, SVG Export Plug-In . SVG Version: 6.00 Build 0)  -->
<svg version="1.1" id="Capa_1" xmlns="http://www.w3.org/2000/svg" xmlns:xlink="http://www.w3.org/1999/xlink" x="0px" y="0px"
	 viewBox="0 0 23.303 23.303" style="enable-background:new 0 0 23.303 23.303;" xml:space="preserve">
<g>
	<g>
		<path style="fill:#010002;" d="M6.124,10.703c2.568,0,4.64-2.075,4.64-4.633c0-2.561-2.071-4.635-4.64-4.635
			c-2.556,0-4.627,2.074-4.627,4.635C1.497,8.627,3.568,10.703,6.124,10.703z"/>
		<path style="fill:#010002;" d="M9.842,11.457H2.414C1.088,11.457,0,12.676,0,14.169v7.459c0,0.082,0.039,0.157,0.047,0.24h12.164
			c0.005-0.083,0.044-0.158,0.044-0.24v-7.459C12.255,12.676,11.171,11.457,9.842,11.457z"/>
		<path style="fill:#010002;" d="M23.303,6.386c-0.005-2.72-2.49-4.911-5.532-4.904c-3.056,0.005-5.521,2.214-5.517,4.927
			c0.005,2.143,1.552,3.956,3.7,4.623l0.029,9.39l1.793,1.29l1.864-1.301l-0.003-1.246h-0.861l-0.004-1.221h0.863l-0.008-1.35H18.77
			l-0.004-1.219h0.861l-0.004-1.22h-0.86l-0.003-1.22l0.864-0.001l-0.014-1.908C21.761,10.351,23.303,8.531,23.303,6.386z
			 M17.774,3.598c0.685,0,1.247,0.561,1.247,1.245c0.005,0.693-0.557,1.252-1.244,1.252c-0.691,0-1.249-0.551-1.249-1.246
			C16.524,4.162,17.083,3.6,17.774,3.598z"/>
	</g>
</g>
<g>
</g>
<g>
</g>
<g>
</g>
<g>
</g>
<g>
</g>
<g>
</g>
<g>
</g>
<g>
</g>
<g>
</g>
<g>
</g>
<g>
</g>
<g>
</g>
<g>
</g>
<g>
</g>
<g>
</g>
</svg>
